<svg xmlns="http://www.w3.org/2000/svg" xmlns:xlink="http://www.w3.org/1999/xlink" version="1.1" width="1000" height="1000" viewBox="0 0 1000 1000" xml:space="preserve">
<desc>Created with Fabric.js 3.5.0</desc>
<defs>
</defs>
<rect x="0" y="0" width="100%" height="100%" fill="#ffffff"/>
<g transform="matrix(32.0032 0 0 32.0032 500 499.9999)" id="748282">
<path style="stroke: none; stroke-width: 1; stroke-dasharray: none; stroke-linecap: butt; stroke-dashoffset: 0; stroke-linejoin: miter; stroke-miterlimit: 4; is-custom-font: none; font-file-url: none; fill: rgb(255,255,255); fill-rule: nonzero; opacity: 1;" vector-effect="non-scaling-stroke" transform=" translate(-16, -15.9238)" d="M 8.382813 1.972656 L 4.078125 13.453125 L 3.835938 14.105469 L 1.796875 19.542969 L 16 29.875 L 30.203125 19.542969 L 28.164063 14.105469 L 23.613281 1.972656 L 19.882813 13.453125 L 12.117188 13.453125 Z M 8.25 8.027344 L 10.015625 13.453125 L 6.214844 13.453125 Z M 23.75 8.027344 L 25.785156 13.453125 L 21.984375 13.453125 Z M 5.464844 15.453125 L 10.664063 15.453125 L 14.09375 26.015625 L 4.203125 18.820313 Z M 12.765625 15.453125 L 19.234375 15.453125 L 16 25.402344 Z M 21.335938 15.453125 L 26.53125 15.453125 L 27.796875 18.820313 L 17.902344 26.015625 Z" stroke-linecap="round"/>
</g>
</svg>